<?xml version="1.0" standalone="no"?>
<!DOCTYPE svg PUBLIC "-//W3C//DTD SVG 20010904//EN"
        "http://www.w3.org/TR/2001/REC-SVG-20010904/DTD/svg10.dtd">
<svg version="1.0" xmlns="http://www.w3.org/2000/svg"
     width="877.000000pt" height="602.000000pt" viewBox="0 0 877 602"
     preserveAspectRatio="xMidYMid meet">

    <!-- Round background circle -->
    <circle cx="428" cy="301" r="405" fill="#AC9F8D" />

    <g transform="translate(0,602) scale(0.1,-0.1)"
       fill="#000000" stroke="none">
        <path d="M7515 5114 c-126 -95 -389 -226 -605 -301 -152 -54 -472 -148 -580
-173 -30 -6 -119 -27 -198 -46 l-142 -35 -27 25 c-15 14 -52 35 -83 47 -30 12
-118 50 -195 84 -168 76 -305 127 -400 149 -38 9 -104 27 -145 40 -41 13 -120
31 -175 40 -55 9 -122 21 -150 26 -109 21 -240 32 -461 37 -229 6 -338 -2
-529 -37 -27 -5 -97 -16 -155 -25 -90 -13 -362 -81 -425 -106 -11 -4 -54 -19
-95 -34 -41 -15 -96 -35 -121 -45 -25 -11 -68 -26 -95 -35 -72 -24 -208 -94
-265 -137 -27 -21 -55 -38 -61 -38 -7 0 -57 11 -113 24 -506 124 -649 162
-761 202 -71 25 -174 60 -229 79 -55 18 -120 41 -145 52 -25 11 -65 29 -90 39
-61 25 -159 86 -250 154 -83 63 -112 80 -132 80 -27 0 -55 -38 -62 -82 -7 -50
9 -227 29 -307 56 -233 220 -534 375 -689 87 -88 299 -236 440 -307 150 -75
359 -155 550 -211 91 -26 169 -51 174 -55 4 -4 -11 -24 -33 -45 -95 -85 -216
-249 -268 -362 -52 -111 -63 -160 -70 -312 -7 -164 11 -271 68 -402 110 -256
303 -418 594 -499 64 -18 106 -22 210 -22 147 0 209 16 380 98 187 90 376 291
456 483 12 29 25 52 29 52 17 0 179 -306 220 -414 l19 -49 -32 -31 c-97 -95
-178 -235 -198 -342 -6 -33 -9 -98 -6 -147 l6 -87 -37 -19 c-20 -11 -48 -31
-62 -46 -36 -39 -138 -116 -189 -144 -40 -22 -175 -73 -281 -108 -25 -7 -85
-22 -135 -32 -183 -37 -257 -44 -425 -38 -271 8 -477 61 -750 191 -429 204
-775 638 -851 1066 -34 190 -49 315 -49 405 0 146 34 380 75 515 26 89 135
311 200 408 36 54 65 106 65 114 0 18 -47 61 -90 83 -26 13 -28 12 -62 -23
-37 -40 -88 -107 -88 -116 0 -3 -17 -34 -38 -68 -66 -110 -118 -233 -162 -386
-62 -217 -91 -490 -71 -680 26 -251 59 -384 142 -578 82 -193 147 -296 295
-464 236 -270 541 -458 911 -564 163 -47 331 -69 528 -68 194 0 340 20 525 72
245 68 413 150 534 261 30 27 59 49 65 49 16 0 65 -111 261 -585 127 -305 155
-363 185 -377 22 -10 29 -8 49 11 28 26 90 141 100 184 4 16 22 62 41 102 19
41 41 95 50 120 8 26 36 90 61 143 25 53 54 120 64 147 10 28 36 86 58 130 23
44 45 92 51 107 13 35 20 35 78 -2 26 -17 53 -30 60 -30 7 0 27 -13 45 -29 30
-26 183 -121 195 -121 2 0 41 -16 86 -36 277 -122 621 -169 942 -129 123 15
145 20 300 62 280 75 578 247 786 453 204 202 324 394 424 675 72 207 100 377
100 620 0 101 -5 198 -13 240 -40 204 -53 260 -90 365 -50 146 -112 275 -199
415 -83 133 -94 138 -159 71 -24 -26 -44 -53 -44 -61 0 -9 29 -62 65 -118 116
-183 192 -394 242 -672 22 -125 25 -432 4 -545 -35 -192 -56 -254 -173 -500
-106 -222 -377 -494 -628 -628 -89 -47 -344 -152 -400 -164 -198 -43 -374 -68
-475 -68 -142 1 -399 49 -515 96 -267 110 -315 136 -420 230 -36 33 -76 66
-88 74 -20 13 -21 19 -12 50 23 81 4 201 -46 288 -57 99 -128 193 -160 213
-42 25 -44 58 -10 127 13 26 46 92 73 147 28 55 63 129 78 165 40 92 49 100
66 58 27 -66 95 -194 132 -250 86 -128 250 -250 418 -309 269 -96 497 -72 746
76 156 94 309 271 359 415 45 131 57 196 57 315 -1 195 -57 363 -183 550 -45
67 -98 122 -184 192 -22 18 -37 36 -33 39 4 4 35 13 69 20 146 29 300 84 523
189 193 90 285 140 375 203 52 37 229 221 293 304 145 191 256 481 287 754 12
105 6 149 -24 169 -38 28 -68 17 -171 -61z m-164 -353 c-168 -189 -441 -348
-791 -460 -52 -16 -138 -44 -190 -61 -52 -17 -129 -42 -170 -55 -76 -24 -258
-88 -295 -104 -11 -4 -37 -16 -58 -25 -21 -9 -42 -16 -46 -16 -9 0 -144 -60
-231 -103 -71 -35 -256 -138 -300 -167 -14 -9 -58 -39 -99 -66 -84 -56 -197
-149 -289 -238 -67 -64 -274 -307 -334 -391 -82 -115 -167 -267 -205 -365 -22
-58 -46 -105 -53 -105 -16 0 -15 -1 -94 165 -125 261 -240 423 -465 653 -100
103 -191 181 -301 259 -137 97 -468 288 -499 288 -6 0 -55 20 -108 44 -114 51
-348 133 -513 181 -155 45 -348 103 -385 117 -67 25 -257 112 -360 165 -99 51
-135 73 -253 152 -37 24 -219 201 -208 201 4 0 37 -15 74 -34 86 -43 225 -101
327 -136 44 -15 141 -49 215 -74 74 -26 270 -81 435 -122 562 -140 560 -139
782 -233 169 -71 217 -95 378 -191 265 -158 495 -363 646 -575 93 -131 112
-162 203 -337 71 -136 98 -171 129 -166 17 2 42 41 117 188 177 343 333 531
625 749 263 197 595 360 930 456 44 13 118 35 165 50 47 14 112 32 145 40 78
17 508 132 560 150 109 37 245 87 283 105 24 11 62 28 85 37 23 9 78 38 122
63 44 26 82 43 83 38 2 -5 -24 -39 -57 -77z m-3135 -608 c1 -369 -1 -684 -5
-700 l-8 -28 -19 34 c-10 18 -43 64 -72 102 l-52 69 5 593 6 592 52 6 c29 3
61 6 71 5 19 -1 19 -19 22 -673z m311 663 c2 -1 3 -265 3 -586 l1 -583 -34
-36 c-19 -20 -47 -57 -62 -83 -30 -53 -40 -58 -50 -28 -7 21 4 1310 10 1321 3
5 126 0 132 -5z m-624 -246 c8 -233 3 -727 -7 -738 -4 -3 -26 14 -50 37 -24
24 -54 48 -67 55 l-22 11 1 240 c1 132 5 322 8 423 l7 182 31 0 c17 0 38 5 46
10 8 6 22 9 30 7 13 -2 16 -39 23 -227z m919 214 c16 -5 18 -37 20 -412 l3
-407 -24 -20 c-14 -11 -43 -37 -66 -57 -70 -63 -71 -59 -57 239 8 154 10 335
6 449 -4 105 -4 199 0 209 5 14 14 16 54 11 26 -4 55 -9 64 -12z m-1230 -46
c2 -7 3 -157 3 -332 0 -233 -3 -320 -12 -323 -6 -2 -27 10 -45 26 -19 17 -48
35 -63 41 l-28 11 6 187 c4 103 7 227 7 275 0 61 4 89 13 91 6 3 32 11 57 19
59 19 57 19 62 5z m1533 -19 c7 -5 12 -106 14 -272 l3 -264 -66 -41 c-60 -38
-67 -40 -75 -23 -6 10 -9 142 -8 320 l2 301 60 -6 c33 -4 65 -10 70 -15z
m-1827 -262 c1 -133 -1 -207 -8 -207 -11 0 -122 69 -131 82 -3 4 -1 41 3 80 5
40 6 105 3 143 l-5 71 57 21 c32 12 63 20 68 19 6 -2 11 -82 13 -209z m2124
184 c3 -3 8 -71 9 -151 l4 -145 -45 -22 c-84 -42 -85 -42 -88 147 -1 90 0 170
3 177 3 10 18 12 57 7 29 -4 56 -9 60 -13z m-2428 -87 c3 -9 6 -35 6 -59 0
-82 -7 -86 -102 -58 -90 27 -87 49 12 101 66 35 76 37 84 16z m2703 -21 c72
-37 85 -50 61 -57 -78 -22 -104 -31 -112 -38 -6 -4 -18 -8 -28 -8 -16 0 -18 9
-18 70 0 47 4 70 12 70 6 0 45 -17 85 -37z m1682 -34 c-59 -113 -284 -351
-407 -432 -61 -41 -107 -64 -304 -156 -37 -17 -111 -47 -165 -67 -54 -19 -138
-50 -188 -69 -49 -19 -148 -55 -220 -80 -145 -52 -254 -96 -369 -149 -43 -20
-79 -36 -80 -36 -17 0 -203 -117 -326 -205 -121 -86 -190 -144 -316 -270 -221
-220 -304 -334 -427 -587 -53 -108 -104 -220 -113 -248 -18 -57 -32 -67 -63
-50 -17 8 -21 20 -21 56 0 106 80 361 167 534 66 130 212 345 294 431 133 140
175 180 259 253 205 178 487 336 875 489 77 30 156 60 175 66 247 76 535 171
615 203 294 116 510 235 575 317 35 43 62 43 39 0z m-6159 -34 c7 -8 16 -15
21 -15 5 0 55 -29 112 -64 193 -119 428 -224 662 -295 55 -16 154 -46 220 -66
154 -47 417 -135 430 -145 6 -5 46 -22 90 -40 44 -17 94 -37 110 -45 17 -7 52
-23 78 -34 108 -46 370 -208 447 -275 20 -17 56 -47 80 -66 105 -83 306 -295
367 -387 15 -23 44 -65 64 -95 58 -84 143 -228 173 -291 64 -136 154 -451 135
-474 -16 -18 -43 -16 -62 5 -16 17 -74 139 -109 226 -10 27 -27 61 -37 75 -10
14 -27 42 -38 61 -39 72 -157 247 -209 311 -106 130 -275 292 -415 397 -93 70
-257 180 -314 212 -33 18 -67 37 -75 42 -81 45 -478 198 -750 289 -206 68
-276 97 -443 179 -162 81 -244 140 -379 274 -80 80 -188 213 -188 231 0 10 18
4 30 -10z m4823 -1096 c241 -160 337 -329 337 -594 0 -131 -8 -176 -53 -287
-64 -161 -189 -283 -367 -357 -205 -85 -361 -78 -579 25 -175 83 -294 221
-349 409 -39 133 -51 180 -47 184 3 2 56 57 119 122 76 78 116 113 120 104 3
-8 2 -44 0 -82 -20 -246 160 -513 372 -553 101 -19 183 -9 267 34 40 20 81 44
92 53 45 39 120 142 148 203 27 59 30 75 29 165 0 140 -37 226 -141 332 -64
66 -101 88 -191 118 -153 50 -153 50 -122 78 26 23 214 116 237 116 11 1 68
-31 128 -70z m-3234 -1 c69 -30 126 -59 128 -65 2 -5 -27 -18 -64 -27 -147
-38 -197 -65 -296 -163 -130 -127 -166 -314 -98 -500 26 -71 51 -109 108 -165
89 -86 200 -125 333 -115 133 9 225 55 313 155 90 101 137 231 137 376 0 53 2
96 5 96 16 0 73 -53 133 -124 37 -44 80 -92 96 -107 l30 -26 -24 -64 c-97
-260 -194 -381 -385 -477 -124 -63 -277 -99 -373 -89 -258 28 -472 165 -575
368 -40 78 -49 107 -73 229 -18 92 -5 235 30 339 44 131 176 290 317 381 80
52 92 51 258 -22z m226 -277 c95 -43 149 -145 114 -214 -17 -33 -70 -87 -102
-103 -37 -20 -117 -20 -155 0 -50 26 -102 108 -102 161 0 127 129 209 245 156z
m2795 -36 c67 -43 93 -80 98 -137 4 -49 1 -57 -29 -95 -47 -57 -78 -73 -141
-73 -98 0 -158 66 -158 174 0 51 4 60 38 97 65 73 117 82 192 34z m-1396
-1111 c137 -48 258 -240 231 -366 -4 -18 -22 -62 -40 -98 -18 -36 -40 -87 -50
-115 -10 -27 -22 -55 -26 -60 -4 -6 -16 -33 -28 -61 -11 -28 -29 -71 -40 -95
-28 -60 -74 -171 -128 -309 -52 -131 -66 -152 -81 -124 -5 11 -12 33 -15 50
-3 17 -18 58 -33 90 -15 32 -40 88 -56 124 -17 36 -39 88 -50 115 -10 28 -28
70 -40 95 -49 107 -123 327 -132 395 -21 157 111 336 277 375 42 10 162 1 211
-16z"/>
        <path d="M4134 1736 c-42 -19 -64 -52 -64 -100 0 -31 7 -45 36 -72 19 -19 46
-34 59 -34 13 0 40 15 59 34 39 36 46 74 25 135 -18 50 -56 63 -115 37z"/>
        <path d="M4395 1736 c-16 -11 -20 -26 -20 -75 0 -53 4 -64 30 -91 49 -51 106
-37 144 37 21 42 13 79 -24 112 -40 35 -96 42 -130 17z"/>
        <path d="M7040 3626 c-8 -8 -71 -47 -140 -87 -203 -116 -210 -122 -210 -174 0
-52 38 -105 75 -105 13 0 70 28 127 63 57 35 135 82 174 105 110 64 130 112
73 177 -34 38 -73 46 -99 21z"/>
        <path d="M1444 3602 c-12 -10 -29 -33 -39 -51 -16 -32 -16 -35 2 -59 11 -14
57 -47 104 -73 46 -26 127 -72 179 -102 98 -56 131 -69 147 -58 21 14 63 79
63 97 -1 30 -19 47 -115 106 -182 110 -273 158 -302 158 -10 -1 -28 -9 -39
-18z"/>
        <path d="M7125 3214 c-71 -24 -159 -54 -195 -65 -73 -23 -100 -47 -100 -91 0
-36 24 -83 45 -92 30 -11 53 -6 215 49 189 63 230 82 250 118 13 23 12 30 -6
74 -26 64 -43 64 -209 7z"/>
        <path d="M1263 3212 c-52 -70 -13 -123 122 -169 33 -12 87 -26 120 -33 33 -6
76 -16 96 -21 61 -15 91 -11 121 18 62 60 24 127 -84 148 -35 7 -101 27 -148
44 -47 17 -112 34 -145 37 -58 6 -61 5 -82 -24z"/>
        <path d="M1243 2811 c-47 -8 -71 -25 -84 -59 -13 -35 21 -109 54 -118 14 -3
116 -4 228 -2 l202 4 28 32 c37 41 37 80 3 121 l-26 31 -181 -1 c-100 -1 -201
-5 -224 -8z"/>
        <path d="M6942 2803 c-24 -3 -38 -13 -53 -36 -25 -42 -24 -76 4 -110 l22 -28
223 1 c243 1 251 2 277 57 14 29 14 36 1 68 -9 21 -26 39 -41 45 -25 9 -362
12 -433 3z"/>
        <path d="M1595 2459 c-44 -16 -109 -40 -145 -53 -195 -70 -220 -87 -220 -148
0 -46 35 -88 73 -88 25 0 111 27 169 53 18 9 71 27 118 42 179 58 226 113 157
189 -33 38 -63 39 -152 5z"/>
        <path d="M6854 2472 c-19 -13 -34 -50 -34 -85 0 -27 7 -41 30 -60 16 -14 38
-28 47 -31 136 -39 177 -52 228 -73 33 -14 86 -32 118 -40 57 -15 59 -15 83 8
26 24 40 75 29 108 -9 28 -61 58 -152 85 -43 13 -103 33 -133 44 -137 49 -192
60 -216 44z"/>
        <path d="M1769 2152 c-313 -208 -379 -262 -379 -308 0 -26 35 -80 60 -94 29
-15 47 -8 126 55 38 31 109 81 157 113 193 125 182 116 185 156 6 75 -84 122
-149 78z"/>
        <path d="M6681 2144 c-12 -15 -21 -41 -21 -60 0 -43 34 -76 135 -132 43 -24
132 -79 198 -123 66 -43 128 -79 138 -79 20 0 69 65 69 92 0 60 -57 107 -333
275 -105 63 -152 70 -186 27z"/>
        <path d="M1980 1928 c-39 -18 -96 -67 -208 -178 l-103 -102 3 -46 c3 -40 8
-49 37 -69 40 -27 73 -29 109 -6 32 19 239 241 265 283 16 25 17 35 7 64 -6
19 -16 39 -23 44 -20 17 -61 22 -87 10z"/>
        <path d="M6553 1901 c-45 -28 -58 -55 -43 -92 17 -39 225 -239 281 -268 55
-29 87 -24 112 18 37 63 13 106 -126 232 -148 133 -169 144 -224 110z"/>
        <path d="M3466 1829 c-21 -17 -26 -29 -26 -68 0 -39 5 -52 28 -75 62 -58 152
-35 152 40 0 97 -88 155 -154 103z"/>
        <path d="M5113 1798 c-12 -6 -32 -30 -44 -54 -30 -55 -20 -91 33 -117 33 -16
39 -16 75 -2 72 29 96 110 47 159 -29 28 -71 33 -111 14z"/>
        <path d="M2227 1738 c-14 -18 -34 -49 -44 -68 -11 -19 -35 -62 -53 -95 -18
-33 -48 -84 -66 -113 -19 -29 -34 -58 -34 -65 1 -34 52 -67 104 -67 40 0 46 6
147 167 127 203 125 198 80 244 -23 22 -39 29 -70 29 -33 0 -44 -5 -64 -32z"/>
        <path d="M6243 1750 c-18 -11 -35 -31 -39 -44 -7 -28 1 -42 111 -215 39 -60
78 -124 88 -141 17 -31 20 -32 63 -27 55 6 98 35 102 68 2 17 -15 52 -49 104
-28 44 -65 107 -81 141 -40 84 -89 134 -130 134 -18 0 -48 -9 -65 -20z"/>
        <path d="M3091 1696 c-19 -7 -44 -24 -55 -39 -19 -26 -19 -26 3 -109 12 -46
36 -117 54 -158 37 -87 55 -95 131 -59 45 21 46 23 46 66 0 40 -14 91 -67 241
-10 28 -25 47 -43 57 -16 8 -30 15 -32 14 -2 0 -19 -6 -37 -13z"/>
        <path d="M5452 1675 c-21 -18 -42 -57 -71 -131 -56 -145 -57 -162 -6 -191 78
-45 85 -40 159 113 36 74 66 146 66 159 0 31 -53 75 -90 75 -16 0 -42 -11 -58
-25z"/>
        <path d="M5859 1651 c-33 -34 -33 -29 -15 -235 12 -137 16 -152 37 -169 26
-21 66 -18 106 8 22 15 23 20 23 163 0 81 -5 165 -10 187 -18 77 -87 99 -141
46z"/>
        <path d="M2654 1642 c-29 -23 -32 -35 -54 -199 -25 -186 -16 -213 75 -216 50
-2 59 6 74 63 13 53 41 251 41 288 0 66 -85 106 -136 64z"/>
    </g>
</svg>